/* XPM */
static char *result[] = {
/* columns rows colors chars-per-pixel */
"64 64 121 2 ",
"   c #1E59E8",
".  c #1F5AE8",
"X  c #225CE8",
"o  c #235DE9",
"O  c #265FE9",
"+  c #2760E9",
"@  c #2961E9",
"#  c #3167EA",
"$  c #3268EA",
"%  c #3469EA",
"&  c #356AEA",
"*  c #366BEA",
"=  c #376BEB",
"-  c #386DEB",
";  c #396DEB",
":  c #3A6EEB",
">  c #3B6EEB",
",  c #3C6FEB",
"<  c #3D70EB",
"1  c #3E70EB",
"2  c #3F71EB",
"3  c #4072EB",
"4  c #4072EC",
"5  c #4173EC",
"6  c #4274EC",
"7  c #4374EC",
"8  c #4475EC",
"9  c #4576EC",
"0  c #4676EC",
"q  c #4777EC",
"w  c #4778EC",
"e  c #4878EC",
"r  c #4979EC",
"t  c #4A7AED",
"y  c #4B7AED",
"u  c #4D7CED",
"i  c #4E7CED",
"p  c #4F7DED",
"a  c #507EED",
"s  c #517FED",
"d  c #527FED",
"f  c #5380ED",
"g  c #5481EE",
"h  c #5581EE",
"j  c #5682EE",
"k  c #5683EE",
"l  c #5783EE",
"z  c #5884EE",
"x  c #5985EE",
"c  c #5A85EE",
"v  c #5B86EE",
"b  c #5E89EF",
"n  c #5F89EF",
"m  c #638CEF",
"M  c #658DEF",
"N  c #6990F0",
"B  c #6C92F0",
"V  c #6D93F0",
"C  c #6D94F0",
"Z  c #789BF1",
"A  c #7C9EF2",
"S  c #86A6F3",
"D  c #88A7F3",
"F  c #9EB7F5",
"G  c #A1BAF5",
"H  c #A4BCF6",
"J  c #A5BDF6",
"K  c #A9C0F6",
"L  c #AAC1F6",
"P  c #ABC1F6",
"I  c #AFC4F7",
"U  c #B5C8F7",
"Y  c #BBCDF8",
"T  c #BCCEF8",
"R  c #C0D1F9",
"E  c #C1D1F9",
"W  c #C2D2F9",
"Q  c #C3D3F9",
"!  c #C4D3F9",
"~  c #C7D5F9",
"^  c #CFDCFA",
"/  c #D1DDFA",
"(  c #D2DEFA",
")  c #D8E2FB",
"_  c #D9E3FB",
"`  c #DAE4FB",
"'  c #DDE6FB",
"]  c #DDE6FC",
"[  c #DFE8FC",
"{  c #E1E9FC",
"}  c #E2EAFC",
"|  c #E3EAFC",
" . c #E4EBFC",
".. c #E5EBFC",
"X. c #E5ECFC",
"o. c #E6EDFC",
"O. c #E7EDFD",
"+. c #E8EEFD",
"@. c #E9EFFD",
"#. c #EAEFFD",
"$. c #EBF0FD",
"%. c #ECF1FD",
"&. c #EDF2FD",
"*. c #EEF3FD",
"=. c #EFF3FD",
"-. c #F0F4FD",
";. c #F1F5FE",
":. c #F2F5FE",
">. c #F3F6FE",
",. c #F4F7FE",
"<. c #F5F8FE",
"1. c #F6F8FE",
"2. c #F8FAFE",
"3. c #F9FAFE",
"4. c #FAFBFE",
"5. c #FBFCFF",
"6. c #FCFDFF",
"7. c #FDFEFF",
"8. c #FEFEFF",
"9. c white",
"0. c None",
/* pixels */
"0.0.0.0.0.0.0.0.0.0.0.0.0.0.0.0.0.0.0.0.0.0.0.0.0.0.0.0.0.0.0.0.0.0.0.0.0.0.0.0.0.0.0.0.0.0.0.0.0.0.0.0.0.0.0.0.0.0.0.0.0.0.0.0.",
"0.0.0.0.0.0.0.0.0.0.0.0.0.0.0.0.0.0.0.0.0.0.0.0.0.0.0.0.0.            0.0.0.0.0.0.0.0.0.0.0.0.0.0.0.0.0.0.0.0.0.0.0.0.0.0.0.0.0.",
"0.0.0.0.0.0.0.0.0.0.0.0.0.0.0.0.0.0.0.0.0.0.0.0.                                0.0.0.0.0.0.0.0.0.0.0.0.0.0.0.0.0.0.0.0.0.0.0.0.",
"0.0.0.0.0.0.0.0.0.0.0.0.0.0.0.0.0.0.0.0.0.                                            0.0.0.0.0.0.0.0.0.0.0.0.0.0.0.0.0.0.0.0.0.",
"0.0.0.0.0.0.0.0.0.0.0.0.0.0.0.0.0.0.0.                                                    0.0.0.0.0.0.0.0.0.0.0.0.0.0.0.0.0.0.0.",
"0.0.0.0.0.0.0.0.0.0.0.0.0.0.0.0.0.                                                            0.0.0.0.0.0.0.0.0.0.0.0.0.0.0.0.0.",
"0.0.0.0.0.0.0.0.0.0.0.0.0.0.0.                                                                    0.0.0.0.0.0.0.0.0.0.0.0.0.0.0.",
"0.0.0.0.0.0.0.0.0.0.0.0.0.0.                                                                        0.0.0.0.0.0.0.0.0.0.0.0.0.0.",
"0.0.0.0.0.0.0.0.0.0.0.0.                                                                                0.0.0.0.0.0.0.0.0.0.0.0.",
"0.0.0.0.0.0.0.0.0.0.0.                                                                                    0.0.0.0.0.0.0.0.0.0.0.",
"0.0.0.0.0.0.0.0.0.0.        m                                                                     x         0.0.0.0.0.0.0.0.0.0.",
"0.0.0.0.0.0.0.0.0.          +.z                                                                 n (           0.0.0.0.0.0.0.0.0.",
"0.0.0.0.0.0.0.0.            1.6.5                                                             5 9.{             0.0.0.0.0.0.0.0.",
"0.0.0.0.0.0.0.0.            ) 9.-.3                                                         3 -.9.!             0.0.0.0.0.0.0.0.",
"0.0.0.0.0.0.0.              ` 9.9.*.3                                                     1 &.9.9.~               0.0.0.0.0.0.0.",
"0.0.0.0.0.0.                 .9.9.9.&.2                                                 < %.9.9.9.^                 0.0.0.0.0.0.",
"0.0.0.0.0.0.                ] 9.9.9.9.%.1                                             , $.9.9.9.9.^                 0.0.0.0.0.0.",
"0.0.0.0.0.                  8 =.9.9.9.9.%.,                                         : #.9.9.9.9.;.0                   0.0.0.0.0.",
"0.0.0.0.0.                    4 =.9.9.9.9.$.,                                     ; +.9.9.9.9.:.6                     0.0.0.0.0.",
"0.0.0.0.                        6 -.9.9.9.9.#.,                                 - o.9.9.9.9.,.8                         0.0.0.0.",
"0.0.0.0.                          6 :.9.9.9.9.#.:                             * o.9.9.9.9.1.0                           0.0.0.0.",
"0.0.0.                              7 >.9.9.9.9.@.;                         & ..9.9.9.9.2.w                               0.0.0.",
"0.0.0.                                9 ,.9.9.9.9.+.;                     % | 9.9.9.9.4.y                                 0.0.0.",
"0.0.0.                                  q ,.9.9.9.9.O.=                 # } 9.9.9.9.5.p                                   0.0.0.",
"0.0.                                      w 1.9.9.9.9.| X               _ 9.9.9.9.7.s                                       0.0.",
"0.0.                                        e 2.9.9.9.9.I             F 9.9.9.9.8.g                                         0.0.",
"0.0.                                          y 3.9.9.9.9.u         3 9.9.9.9.9.l                                           0.0.",
"0.0.                                            b 9.9.9.9.Y         K 9.9.9.9.C                                             0.0.",
"0.0.                                              U 9.9.9.8.#     O <.9.9.9.!                                               0.0.",
"0.                                                q 9.9.9.9.M     j 9.9.9.9.v                                                 0.",
"0.                                                  } 9.9.9.S     Z 9.9.9.;.o                                                 0.",
"0.                                                  E 9.9.9.H     S 9.9.9./                                                   0.",
"0.                                                  R 9.9.9.J     S 9.9.9./                                                   0.",
"0.                                                  ] 9.9.9.D     Z 9.9.9.-.o                                                 0.",
"0.                                                4 9.9.9.9.N     l 9.9.9.9.x                                                 0.",
"0.0.                                              L 9.9.9.9.%     + 1.9.9.9.W                                               0.0.",
"0.0.                                            a 9.9.9.9.Q         P 9.9.9.9.B                                             0.0.",
"0.0.                                          1 -.9.9.9.9.f         5 9.9.9.9.9.h                                           0.0.",
"0.0.                                        , %.9.9.9.9.T             G 9.9.9.9.7.d                                         0.0.",
"0.0.                                      > #.9.9.9.9.#.@             . ' 9.9.9.9.6.s                                       0.0.",
"0.0.0.                                  : @.9.9.9.9.=.<                 $  .9.9.9.9.5.p                                   0.0.0.",
"0.0.0.                                ; O.9.9.9.9.;.5                     * ..9.9.9.9.4.u                                 0.0.0.",
"0.0.0.                              = O.9.9.9.9.,.7                         * X.9.9.9.9.4.t                               0.0.0.",
"0.0.0.0.                          * X.9.9.9.9.1.9                             = o.9.9.9.9.2.r                           0.0.0.0.",
"0.0.0.0.                        &  .9.9.9.9.1.e                                 - o.9.9.9.9.<.w                         0.0.0.0.",
"0.0.0.0.0.                    % | 9.9.9.9.3.y                                     - O.9.9.9.9.<.0                     0.0.0.0.0.",
"0.0.0.0.0.                  ; } 9.9.9.9.6.i                                         - @.9.9.9.9.,.r                   0.0.0.0.0.",
"0.0.0.0.0.0.                ! 9.9.9.9.6.s                                             : +.9.9.9.9.{                 0.0.0.0.0.0.",
"0.0.0.0.0.0.                ^ 9.9.9.7.g                                                 > @.9.9.9. .                0.0.0.0.0.0.",
"0.0.0.0.0.0.0.              ! 9.9.9.k                                                     > #.9.9.`               0.0.0.0.0.0.0.",
"0.0.0.0.0.0.0.0.            E 9.9.z                                                         , $.9.)             0.0.0.0.0.0.0.0.",
"0.0.0.0.0.0.0.0.            ) 9.v                                                             < 2.3.            0.0.0.0.0.0.0.0.",
"0.0.0.0.0.0.0.0.0.          [ A                                                                 s {           0.0.0.0.0.0.0.0.0.",
"0.0.0.0.0.0.0.0.0.0.        V                                                                     c         0.0.0.0.0.0.0.0.0.0.",
"0.0.0.0.0.0.0.0.0.0.0.                                                                                    0.0.0.0.0.0.0.0.0.0.0.",
"0.0.0.0.0.0.0.0.0.0.0.0.                                                                                0.0.0.0.0.0.0.0.0.0.0.0.",
"0.0.0.0.0.0.0.0.0.0.0.0.0.0.                                                                        0.0.0.0.0.0.0.0.0.0.0.0.0.0.",
"0.0.0.0.0.0.0.0.0.0.0.0.0.0.0.                                                                    0.0.0.0.0.0.0.0.0.0.0.0.0.0.0.",
"0.0.0.0.0.0.0.0.0.0.0.0.0.0.0.0.0.                                                            0.0.0.0.0.0.0.0.0.0.0.0.0.0.0.0.0.",
"0.0.0.0.0.0.0.0.0.0.0.0.0.0.0.0.0.0.0.                                                    0.0.0.0.0.0.0.0.0.0.0.0.0.0.0.0.0.0.0.",
"0.0.0.0.0.0.0.0.0.0.0.0.0.0.0.0.0.0.0.0.0.                                            0.0.0.0.0.0.0.0.0.0.0.0.0.0.0.0.0.0.0.0.0.",
"0.0.0.0.0.0.0.0.0.0.0.0.0.0.0.0.0.0.0.0.0.0.0.0.                                0.0.0.0.0.0.0.0.0.0.0.0.0.0.0.0.0.0.0.0.0.0.0.0.",
"0.0.0.0.0.0.0.0.0.0.0.0.0.0.0.0.0.0.0.0.0.0.0.0.0.0.0.0.0.            0.0.0.0.0.0.0.0.0.0.0.0.0.0.0.0.0.0.0.0.0.0.0.0.0.0.0.0.0.",
"0.0.0.0.0.0.0.0.0.0.0.0.0.0.0.0.0.0.0.0.0.0.0.0.0.0.0.0.0.0.0.0.0.0.0.0.0.0.0.0.0.0.0.0.0.0.0.0.0.0.0.0.0.0.0.0.0.0.0.0.0.0.0.0."
};
