/* XPM */
static char *result[] = {
/* columns rows colors chars-per-pixel */
"32 32 74 1 ",
"  c #1E59E8",
". c #1F5AE8",
"X c #205AE8",
"o c #215BE8",
"O c #225CE8",
"+ c #235DE9",
"@ c #245EE9",
"# c #255EE9",
"$ c #265FE9",
"% c #2961E9",
"& c #2B63E9",
"* c #396DEB",
"= c #3B6EEB",
"- c #3D70EB",
"; c #4072EB",
": c #4475EC",
"> c #4576EC",
", c #4878EC",
"< c #4B7AED",
"1 c #4C7BED",
"2 c #517FED",
"3 c #527FED",
"4 c #5A85EE",
"5 c #5C87EE",
"6 c #5E89EF",
"7 c #5F89EF",
"8 c #608AEF",
"9 c #618AEF",
"0 c #628BEF",
"q c #638CEF",
"w c #648CEF",
"e c #658DEF",
"r c #658EEF",
"t c #668EEF",
"y c #6890F0",
"u c #6B92F0",
"i c #6F95F0",
"p c #7096F0",
"a c #7397F1",
"s c #769AF1",
"d c #789BF1",
"f c #7B9DF1",
"g c #7D9FF2",
"h c #8BA9F3",
"j c #B0C4F7",
"k c #B9CCF8",
"l c #BBCDF8",
"z c #BCCEF8",
"x c #BECFF8",
"c c #BFCFF8",
"v c #BFD0F9",
"b c #C0D1F9",
"n c #C2D2F9",
"m c #C6D5F9",
"M c #C7D6F9",
"N c #C8D7F9",
"B c #CAD8FA",
"V c #CBD9FA",
"C c #CCD9FA",
"Z c #CDDAFA",
"A c #CEDBFA",
"S c #D0DCFA",
"D c #D3DEFA",
"F c #D4DFFB",
"G c #DBE4FB",
"H c #DFE8FC",
"J c #E2EAFC",
"K c #E3EAFC",
"L c #ECF1FD",
"P c #FBFCFF",
"I c #FDFEFF",
"U c #FEFEFF",
"Y c white",
"T c None",
/* pixels */
"TTTTTTTTTTTTTT    TTTTTTTTTTTTTT",
"TTTTTTTTTTT          TTTTTTTTTTT",
"TTTTTTTTT              TTTTTTTTT",
"TTTTTTT                  TTTTTTT",
"TTTTTT                    TTTTTT",
"TTTTT  y                q  TTTTT",
"TTTT   Yf              gP   TTTT",
"TTT    YYt            eYY    TTT",
"TTT    zYYe          qYYk    TTT",
"TT     omYYw        9YYN+     TT",
"TT      .NYY0      6YYCX      TT",
"T        XBYY7    4YYSO        T",
"T         oZYY;  *IYF@         T",
"T          OGYM  cYH$          T",
"            ,YY%#YY3            ",
"             KY<-YL             ",
"             JY1-YL             ",
"            >YY&#YY2            ",
"T           FYC  bYH$          T",
"T          nYY:  =UYD@         T",
"T         vYYr    5YYSO        T",
"TT       xYYu      7YYAO      TT",
"TT      lYYi        8YYV+     TT",
"TTT    jYYa          0YYc    TTT",
"TTT    IYs            qYY    TTT",
"TTTT   Uh              dY   TTTT",
"TTTTT  p                w  TTTTT",
"TTTTTT                    TTTTTT",
"TTTTTTT                  TTTTTTT",
"TTTTTTTTT              TTTTTTTTT",
"TTTTTTTTTTT          TTTTTTTTTTT",
"TTTTTTTTTTTTTT    TTTTTTTTTTTTTT"
};
