/* XPM */
static char *result[] = {
/* columns rows colors chars-per-pixel */
"16 16 37 1 ",
"  c #1E59E8",
". c #3A6EEB",
"X c #3B6EEB",
"o c #3F71EB",
"O c #4274EC",
"+ c #4777EC",
"@ c #4878EC",
"# c #527FED",
"$ c #5481EE",
"% c #5783EE",
"& c #5985EE",
"* c #5B86EE",
"= c #5C87EE",
"- c #5F89EF",
"; c #638CEF",
": c #84A5F2",
"> c #89A8F3",
", c #8BAAF3",
"< c #8CAAF3",
"1 c #8EACF3",
"2 c #8FACF4",
"3 c #90ADF4",
"4 c #91AEF4",
"5 c #99B3F5",
"6 c #A0B9F5",
"7 c #A1B9F5",
"8 c #A1BAF5",
"9 c #ADC2F7",
"0 c #AFC4F7",
"q c #B2C6F7",
"w c #B4C8F7",
"e c #BBCDF8",
"r c #C6D5F9",
"t c #C7D5F9",
"y c #CAD8FA",
"u c white",
"i c None",
/* pixels */
"iiiiii    iiiiii",
"iiii        iiii",
"iii$X      X#iii",
"ii tw      wt ii",
"i  ,u4    2u<  i",
"i   &u,  >u*   i",
"     -u+Ou;     ",
"      076w      ",
"      986w      ",
"     *u@Ou;     ",
"i   $u3  >u=   i",
"i  :u5    2u1  i",
"ii ye      qr ii",
"iii%o      .#iii",
"iiii        iiii",
"iiiiii    iiiiii"
};
